<?xml version="1.0" encoding="iso-8859-1"?>
<!-- Uploaded to: SVG Repo, www.svgrepo.com, Generator: SVG Repo Mixer Tools -->
<!DOCTYPE svg PUBLIC "-//W3C//DTD SVG 1.1//EN" "http://www.w3.org/Graphics/SVG/1.1/DTD/svg11.dtd">
<svg fill="#000000" height="800px" width="800px" version="1.1" id="Capa_1" xmlns="http://www.w3.org/2000/svg" xmlns:xlink="http://www.w3.org/1999/xlink" 
	 viewBox="0 0 220.071 220.071" xml:space="preserve">
<path d="M62.251,208.857c-6.899,0-13.713-1.787-19.873-5.291c-9.362-5.325-16.089-13.978-18.944-24.363l-7.251-26.381l-2.861,0.786
	c0,0.001,0,0.001,0,0.001c-3.812,1.047-7.762-1.203-8.81-5.013L4.3,147.825c-1.047-3.81,1.2-7.762,5.011-8.81l2.788-0.767
	c-0.843-2.322-2.07-4.609-3.664-6.822c-3.118-4.33-5.419-9.147-6.84-14.317c-3.282-11.939-1.449-24.845,5.029-35.404
	c6.569-10.707,16.994-17.999,29.356-20.531c21.958-4.497,44.045,8.094,51.373,29.293c2.105,6.091,2.881,12.4,2.305,18.753
	c-0.239,2.637-0.123,5.19,0.346,7.617l0.681-0.187c1.331-0.37,2.707,0.416,3.073,1.747l2.686,9.771
	c0.176,0.64,0.09,1.322-0.238,1.899c-0.328,0.576-0.871,0.999-1.51,1.174l-0.753,0.207l7.251,26.383
	c5.892,21.438-6.756,43.674-28.195,49.565C69.448,208.373,65.838,208.857,62.251,208.857z M21.004,151.497l7.251,26.382
	c2.5,9.097,8.394,16.677,16.595,21.342c8.201,4.664,17.728,5.854,26.825,3.356c18.78-5.162,29.86-24.641,24.699-43.421
	l-7.251-26.381l-7.262,1.996c2.207,5.539,5.142,15.125,5.967,18.127c2.993,10.888,2.619,20.115-1.11,27.427
	c-3.383,6.632-9.415,11.304-17.444,13.511c-8.029,2.206-15.602,1.274-21.899-2.698c-6.942-4.378-11.979-12.118-14.972-23.007
	c-0.825-3.001-3.201-12.741-4.136-18.63L21.004,151.497z M33.118,148.167c0.748,5.047,3.055,14.814,4.106,18.639
	c2.651,9.647,6.964,16.411,12.818,20.103c5.076,3.202,11.268,3.93,17.907,2.105c6.638-1.824,11.588-5.614,14.315-10.961
	c3.145-6.165,3.395-14.183,0.743-23.831c-1.05-3.823-4.059-13.397-5.996-18.118L33.118,148.167z M19.392,141.429l-8.756,2.406
	c-1.152,0.317-1.832,1.512-1.515,2.663l0.212,0.772c0.317,1.152,1.512,1.829,2.663,1.517l5.244-1.441
	c0.009-0.003,0.019-0.006,0.028-0.008l3.367-0.926L19.392,141.429z M24.214,140.104l1.244,4.983l65.503-18.004l-1.361-4.95
	l-16.304,4.48c-0.012,0.004-0.025,0.008-0.038,0.011l-41.76,11.478c-0.013,0.004-0.025,0.008-0.038,0.011L24.214,140.104z
	 M44.93,65.264c-2.629,0-5.288,0.263-7.945,0.808c-10.992,2.252-20.26,8.732-26.098,18.247c-5.842,9.523-7.43,20.698-4.47,31.466
	c1.263,4.594,3.307,8.874,6.076,12.72c1.948,2.706,3.437,5.528,4.44,8.415l11.699-3.215c2.236-12.167,8.784-20.807,17.722-23.264
	c8.939-2.45,18.982,1.624,27.121,10.938l11.697-3.215c-0.62-3.002-0.786-6.154-0.492-9.396c0.511-5.644-0.179-11.251-2.051-16.669
	C77.004,75.83,61.596,65.264,44.93,65.264z M51.593,114.741c-1.333,0-2.642,0.172-3.915,0.521c-6.472,1.779-11.405,8-13.615,16.949
	l33.979-9.339C62.843,117.602,57.032,114.741,51.593,114.741z M154.236,171.47c-3.619,0-7.261-0.457-10.858-1.382
	c-23.132-5.945-37.115-29.602-31.169-52.734l7.399-28.787l-1.007-0.259c-1.337-0.344-2.143-1.706-1.799-3.043l2.722-10.593
	c0.165-0.643,0.579-1.192,1.149-1.53c0.57-0.338,1.253-0.434,1.895-0.269l0.945,0.242c0.498-2.707,0.591-5.555,0.275-8.49
	c-0.732-6.818-0.011-13.612,2.143-20.194c7.495-22.91,31.004-36.832,54.681-32.396c13.33,2.5,24.664,10.149,31.913,21.538
	c7.15,11.231,9.351,25.065,6.038,37.954c-1.435,5.583-3.821,10.8-7.094,15.508c-1.735,2.496-3.05,5.071-3.924,7.68l3.586,0.922
	c1.854,0.477,3.411,1.646,4.385,3.294c0.974,1.647,1.248,3.576,0.771,5.43l-0.399,1.553l0,0c-0.477,1.854-1.646,3.412-3.294,4.386
	c-1.647,0.976-3.576,1.249-5.431,0.771l-3.651-0.938l-7.399,28.786c-2.88,11.206-9.952,20.62-19.913,26.507
	C169.438,169.423,161.891,171.47,154.236,171.47z M124.451,89.812l-7.399,28.786c-5.259,20.463,7.109,41.389,27.571,46.648
	c9.912,2.548,20.223,1.083,29.034-4.125c8.811-5.207,15.066-13.534,17.614-23.446l7.399-28.787l-8.28-2.128
	c-0.839,6.054-3.112,16.328-4.152,20.374c-3.021,11.753-8.289,20.156-15.658,24.977c-6.675,4.367-14.773,5.503-23.423,3.277
	c-8.647-2.222-15.197-7.12-18.939-14.165c-4.131-7.776-4.694-17.679-1.674-29.432c1.041-4.048,4.004-14.145,6.187-19.852
	L124.451,89.812z M137.603,93.193c-2.008,5.082-5.139,15.65-6.217,19.843c-2.7,10.507-2.281,19.201,1.247,25.842
	c3.065,5.771,8.518,9.806,15.768,11.669c7.25,1.864,13.973,0.958,19.441-2.619c6.292-4.117,10.852-11.531,13.553-22.037
	c1.078-4.192,3.43-14.961,4.122-20.383L137.603,93.193z M198.013,103.557l10.396,2.672c1.156,0.295,2.34-0.403,2.637-1.56
	l0.399-1.553c0.144-0.561,0.062-1.144-0.233-1.642s-0.766-0.852-1.326-0.996L199.463,97.8L198.013,103.557z M170.256,96.422
	l22.914,5.89l1.451-5.756l-70.876-18.218l-1.478,5.75l0.972,0.25c0.012,0.002,0.023,0.005,0.036,0.009L170.256,96.422z
	 M189.71,90.13l12.981,3.337c1.023-3.176,2.59-6.292,4.671-9.285c2.932-4.218,5.07-8.894,6.356-13.898
	c3.014-11.725,1.091-23.809-5.413-34.025c-6.499-10.209-16.662-17.065-28.617-19.309c-21.221-3.979-42.289,8.502-49.007,29.036
	c-1.932,5.904-2.579,11.996-1.923,18.105c0.38,3.54,0.248,6.987-0.395,10.271l12.979,3.336
	c8.579-10.203,19.307-14.803,28.947-12.319C179.934,67.858,187.116,77.055,189.71,90.13z M146.786,79.097l37.482,9.635
	c-2.527-9.862-8.057-16.669-15.222-18.511C161.882,68.38,153.757,71.676,146.786,79.097z"/>
</svg>